<svg width="94" height="94" viewBox="0 0 94 94" fill="none" xmlns="http://www.w3.org/2000/svg">
<path d="M47.1836 0C21.3523 0 0 20.9848 0 46.8164C0 72.648 21.3523 94 47.1836 94C73.0149 94 94 72.648 94 46.8164C94 20.9848 73.0149 0 47.1836 0Z" fill="#FEDB41"/>
<path d="M94 46.8164C94 72.648 73.0149 94 47.1836 94V0C73.0149 0 94 20.9848 94 46.8164Z" fill="#FFCC33"/>
<path d="M47.1836 11.0156C27.4653 11.0156 11.0156 27.0983 11.0156 46.8164C11.0156 66.5346 27.4653 82.9844 47.1836 82.9844C66.9019 82.9844 82.9844 66.5346 82.9844 46.8164C82.9844 27.0983 66.9019 11.0156 47.1836 11.0156Z" fill="#FEA832"/>
<path d="M82.9844 46.8164C82.9844 66.5346 66.9019 82.9844 47.1836 82.9844V11.0156C66.9019 11.0156 82.9844 27.0983 82.9844 46.8164Z" fill="#FE9923"/>
<path d="M52.6914 44.0625H49.9375V33.0469H52.6914C54.2338 33.0469 55.4453 34.2584 55.4453 35.8008C55.4453 39.4358 60.9531 39.4358 60.9531 35.8008C60.9531 31.2291 57.2633 27.5391 52.6914 27.5391H49.9375V24.7852C49.9375 22.9674 48.5605 22.0312 47.1836 22.0312C45.8066 22.0312 44.4297 22.9674 44.4297 24.7852V27.5391H41.3086C36.7367 27.5391 33.0469 31.2291 33.0469 35.8008V41.3086C33.0469 45.8803 36.7367 49.5703 41.3086 49.5703H44.4297V60.9531H41.3086C39.7662 60.9531 38.5547 59.7416 38.5547 58.1992C38.5547 54.5642 33.0469 54.5642 33.0469 58.1992C33.0469 62.7709 36.7367 66.4609 41.3086 66.4609H44.4297V69.2148C44.4297 71.0326 45.8066 71.9688 47.1836 71.9688C48.5605 71.9688 49.9375 71.0326 49.9375 69.2148V66.4609H52.6914C57.2633 66.4609 60.9531 62.7709 60.9531 58.1992V52.3242C60.9531 47.7526 57.2633 44.0625 52.6914 44.0625ZM44.4297 44.0625H41.3086C39.7662 44.0625 38.5547 42.851 38.5547 41.3086V35.8008C38.5547 34.2584 39.7662 33.0469 41.3086 33.0469H44.4297V44.0625ZM55.4453 58.1992C55.4453 59.7416 54.2338 60.9531 52.6914 60.9531H49.9375V49.5703H52.6914C54.2338 49.5703 55.4453 50.7818 55.4453 52.3242V58.1992Z" fill="#FEDB41"/>
<path d="M52.6914 44.0625H49.9375V33.0469H52.6914C54.2338 33.0469 55.4453 34.2584 55.4453 35.8008C55.4453 39.4358 60.9531 39.4358 60.9531 35.8008C60.9531 31.2291 57.2633 27.5391 52.6914 27.5391H49.9375V24.7852C49.9375 22.9674 48.5605 22.0312 47.1836 22.0312V71.9688C48.5605 71.9688 49.9375 71.0326 49.9375 69.2148V66.4609H52.6914C57.2633 66.4609 60.9531 62.7709 60.9531 58.1992V52.3242C60.9531 47.7526 57.2633 44.0625 52.6914 44.0625ZM55.4453 58.1992C55.4453 59.7416 54.2338 60.9531 52.6914 60.9531H49.9375V49.5703H52.6914C54.2338 49.5703 55.4453 50.7818 55.4453 52.3242V58.1992Z" fill="#FFCC33"/>
</svg>
