<svg width="97" height="97" viewBox="0 0 97 97" fill="none" xmlns="http://www.w3.org/2000/svg">
<path d="M94.1582 68.3926H82.4121C80.8414 68.3926 79.5703 67.1215 79.5703 65.5508V34.291H14.209C12.6382 34.291 11.3672 33.02 11.3672 31.4492V20.082C11.3672 18.5113 12.6382 17.2402 14.209 17.2402H94.1582C95.729 17.2402 97 18.5113 97 20.082V65.5508C97 67.1215 95.729 68.3926 94.1582 68.3926Z" fill="#97DE3D"/>
<path d="M82.4121 68.3926H94.1582C95.729 68.3926 97 67.1215 97 65.5508V20.082C97 18.5113 95.729 17.2402 94.1582 17.2402H42.627V34.291H79.5703V65.5508C79.5703 67.1215 80.8414 68.3926 82.4121 68.3926Z" fill="#59C36A"/>
<path d="M82.4121 79.7598H2.8418C1.27104 79.7598 0 78.4887 0 76.918V31.4492C0 29.8785 1.27104 28.6074 2.8418 28.6074H82.4121C83.9829 28.6074 85.2539 29.8785 85.2539 31.4492V76.918C85.2539 78.4887 83.9829 79.7598 82.4121 79.7598Z" fill="#59C36A"/>
<path d="M82.4121 28.6074H42.627V79.7598H82.4121C83.9829 79.7598 85.2539 78.4887 85.2539 76.918V31.4492C85.2539 29.8785 83.9829 28.6074 82.4121 28.6074Z" fill="#00A66C"/>
<path d="M65.3613 68.3926H19.8926C18.3218 68.3926 17.0508 67.1215 17.0508 65.5508C17.0508 63.9829 15.7742 62.709 14.209 62.709C12.6382 62.709 11.3672 61.4379 11.3672 59.8672V48.5C11.3672 46.9292 12.6382 45.6582 14.209 45.6582C15.7742 45.6582 17.0508 44.3843 17.0508 42.8164C17.0508 41.2457 18.3218 39.9746 19.8926 39.9746H65.3613C66.9321 39.9746 68.2031 41.2457 68.2031 42.8164C68.2031 44.3843 69.4797 45.6582 71.0449 45.6582C72.6157 45.6582 73.8867 46.9292 73.8867 48.5V59.8672C73.8867 61.4379 72.6157 62.709 71.0449 62.709C69.4797 62.709 68.2031 63.9829 68.2031 65.5508C68.2031 67.1215 66.9321 68.3926 65.3613 68.3926Z" fill="#97DE3D"/>
<path d="M71.0449 45.6582C69.4797 45.6582 68.2031 44.3843 68.2031 42.8164C68.2031 41.2457 66.9321 39.9746 65.3613 39.9746H42.627V68.3926H65.3613C66.9321 68.3926 68.2031 67.1215 68.2031 65.5508C68.2031 63.9829 69.4797 62.709 71.0449 62.709C72.6157 62.709 73.8867 61.4379 73.8867 59.8672V48.5C73.8867 46.9292 72.6157 45.6582 71.0449 45.6582Z" fill="#59C36A"/>
<path d="M53.9941 57.0254H31.2598C29.689 57.0254 28.418 55.7543 28.418 54.1836C28.418 52.6128 29.689 51.3418 31.2598 51.3418H53.9941C55.5649 51.3418 56.8359 52.6128 56.8359 54.1836C56.8359 55.7543 55.5649 57.0254 53.9941 57.0254Z" fill="#59C36A"/>
<path d="M53.9941 51.3418H42.627V57.0254H53.9941C55.5649 57.0254 56.8359 55.7543 56.8359 54.1836C56.8359 52.6128 55.5649 51.3418 53.9941 51.3418Z" fill="#00A66C"/>
</svg>
